Coordinates
version=1
nRows=5
nColumns=63
inDegrees=yes

Units are S.I. units (second, meters, Newtons, ...)
If the header above contains a line with 'inDegrees', this indicates whether rotational values are in degrees (yes) or radians (no).

endheader
time	pelvis_tilt	pelvis_list	pelvis_rotation	pelvis_tx	pelvis_ty	pelvis_tz	hip_flexion_r	hip_adduction_r	hip_rotation_r	knee_angle_r	knee_angle_r_beta	ankle_angle_r	subtalar_angle_r	mtp_angle_r	hip_flexion_l	hip_adduction_l	hip_rotation_l	knee_angle_l	knee_angle_l_beta	ankle_angle_l	subtalar_angle_l	mtp_angle_l	L5_S1_Flex_Ext	L5_S1_Lat_Bending	L5_S1_axial_rotation	L4_L5_Flex_Ext	L4_L5_Lat_Bending	L4_L5_axial_rotation	L3_L4_Flex_Ext	L3_L4_Lat_Bending	L3_L4_axial_rotation	L2_L3_Flex_Ext	L2_L3_Lat_Bending	L2_L3_axial_rotation	L1_L2_Flex_Ext	L1_L2_Lat_Bending	L1_L2_axial_rotation	L1_T12_Flex_Ext	L1_T12_Lat_Bending	L1_T12_axial_rotation	Abs_r3	Abs_r2	Abs_r1	Abs_t1	Abs_t2	neck_flexion	neck_bending	neck_rotation	arm_flex_r	arm_add_r	arm_rot_r	elbow_flex_r	pro_sup_r	wrist_flex_r	wrist_dev_r	arm_flex_l	arm_add_l	arm_rot_l	elbow_flex_l	pro_sup_l	wrist_flex_l	wrist_dev_l
      0.83333333	     -3.99487628	     -1.44677720	     90.85271143	      0.20835178	      0.90300215	      0.49019236	     -8.88318184	     -3.30217949	      1.21206290	      6.43073377	      0.11223748	     27.30915961	     -5.35166462	      0.00000000	     -9.81203688	      3.82063491	     13.53219741	      0.50138638	      0.00875084	     20.39054818	    -15.95025346	      0.00000000	     -0.01119933	     -0.33259797	     -0.13678789	     -0.02079828	     -0.44235530	     -0.14533713	     -0.01839938	     -0.80867871	     -0.14533713	     -0.01279972	     -0.80867871	     -0.11968940	     -0.01039970	     -0.67823379	     -0.11114016	     -0.00639930	     -0.51519426	     -0.10259092	     -0.07999571	     -3.76241479	     -0.76077321	      0.00000000	      0.00000000	     27.46121427	      3.45917628	     -2.61718430	      7.88207478	    -16.56125913	     39.95322662	     30.22989329	     72.43008340	     -6.26243703	     -1.92842708	      1.11727031	    -18.95817508	     46.52282398	     23.17821613	     80.78016270	     -8.44179708	     -0.70330708
      0.85000000	     -3.72630313	     -1.19902875	     90.85604231	      0.20802851	      0.90245232	      0.48854182	     -9.18765611	     -3.01691834	      1.50821985	      6.49180126	      0.11330331	     27.74794460	     -5.25262383	      0.00000000	    -10.17065467	      3.53510473	     13.83704598	      0.47735374	      0.00833139	     21.35592548	    -15.91643325	      0.00000000	     -0.03642807	     -0.29016008	     -0.06434554	     -0.06765058	     -0.38591291	     -0.06836714	     -0.05984768	     -0.70549522	     -0.06836714	     -0.04163365	     -0.70549522	     -0.05630235	     -0.03382711	     -0.59169444	     -0.05228075	     -0.02081500	     -0.44945796	     -0.04825916	     -0.26020210	     -3.28234886	     -0.35787061	      0.00000000	      0.00000000	     27.43469408	      3.10861201	     -2.81871168	      7.19152884	    -16.85073987	     40.82551753	     28.06481483	     72.52037651	     -6.07635841	     -0.81063811	      0.15909933	    -19.22714877	     47.07426203	     23.28293862	     81.83264004	     -9.35891389	     -2.28644229
      0.86666667	     -3.33352017	     -1.13779443	     90.90454246	      0.20797882	      0.90188874	      0.48734137	     -9.18514289	     -2.57210987	      1.82705799	      6.68962607	      0.11675600	     28.24238104	     -5.14500545	      0.00000000	    -10.29138902	      3.09735409	     13.83113924	      0.45440322	      0.00793083	     22.34747871	    -15.66456496	      0.00000000	     -0.04545346	     -0.23552093	     -0.01935651	     -0.08441163	     -0.31324284	     -0.02056629	     -0.07467550	     -0.57264559	     -0.02056629	     -0.05194877	     -0.57264559	     -0.01693695	     -0.04220809	     -0.48027428	     -0.01572717	     -0.02597211	     -0.36482192	     -0.01451738	     -0.32466955	     -2.66425986	     -0.10765511	      0.00000000	      0.00000000	     27.49065435	      2.32325922	     -3.22535862	      6.77054595	    -17.19537275	     42.70653328	     26.33885478	     72.33287314	     -5.70103382	      0.12270557	     -0.42621530	    -19.16054284	     48.09692107	     22.75526794	     83.59901780	    -11.20488249	     -4.90954210
      0.88333333	     -2.95155031	     -1.25722945	     90.96043032	      0.20754059	      0.90140637	      0.48723259	     -8.86236106	     -2.18162736	      1.87227129	      6.99990088	      0.12217132	     28.79661909	     -4.78089459	      0.00000000	    -10.13563104	      2.69479355	     13.40908811	      0.45487322	      0.00793904	     23.45587919	    -14.82981149	      0.00000000	     -0.04526142	     -0.17800452	     -0.01400030	     -0.08405498	     -0.23674601	     -0.01487532	     -0.07435999	     -0.43280018	     -0.01487532	     -0.05172928	     -0.43280018	     -0.01225027	     -0.04202975	     -0.36298681	     -0.01137525	     -0.02586238	     -0.27572900	     -0.01050023	     -0.32329779	     -2.01362269	     -0.07786549	      0.00000000	      0.00000000	     27.59651834	      1.58065413	     -3.69244889	      7.82935169	    -17.90071288	     52.95835616	     23.96966814	     62.99386892	     -6.63805527	     -1.46167585	     -0.40965104	    -19.06948036	     51.80033063	     21.99548990	     82.65744599	    -13.18603840	     -7.30542114
      0.90000000	     -2.58510907	     -1.64602790	     91.22796302	      0.20669367	      0.90070811	      0.48794162	     -8.15370782	     -1.80762361	      1.47965723	      7.48774575	      0.13068582	     29.35775866	     -4.26529120	      0.00000000	     -9.61111749	      2.29361167	     13.29181984	      0.46525982	      0.00812032	     24.44015124	    -14.18564611	      0.00000000	     -0.02207974	     -0.12026801	     -0.02433441	     -0.04100428	     -0.15995646	     -0.02585531	     -0.03627480	     -0.29241965	     -0.02585531	     -0.02523493	     -0.29241965	     -0.02129261	     -0.02050324	     -0.24525054	     -0.01977171	     -0.01261636	     -0.18629516	     -0.01825081	     -0.15771335	     -1.36049584	     -0.13534070	      0.00000000	      0.00000000	     27.76077148	      0.65070767	     -4.40198013	      8.08360756	    -18.18570927	     59.00193779	     22.11818536	     58.72965050	     -7.02543071	     -2.70596851	     -0.11598845	    -18.78789555	     56.02288069	     21.02408046	     81.88701124	    -15.03952596	     -9.03084137
